<svg xmlns="http://www.w3.org/2000/svg" xmlns:xlink="http://www.w3.org/1999/xlink" width="807" zoomAndPan="magnify" viewBox="0 0 605.25 267.749992" height="357" preserveAspectRatio="xMidYMid meet" version="1.0"><defs><clipPath id="f640160695"><path d="M 0 0.0390625 L 604.5 0.0390625 L 604.5 267.460938 L 0 267.460938 Z M 0 0.0390625 " clip-rule="nonzero"/></clipPath></defs><g clip-path="url(#f640160695)"><path fill="#ffffff" d="M 0 0.0390625 L 604.5 0.0390625 L 604.5 267.460938 L 0 267.460938 Z M 0 0.0390625 " fill-opacity="1" fill-rule="nonzero"/><path fill="#ffffff" d="M 0 0.0390625 L 604.5 0.0390625 L 604.5 267.460938 L 0 267.460938 Z M 0 0.0390625 " fill-opacity="1" fill-rule="nonzero"/><path fill="#5271ff" d="M 0 133.75 L 0 267.460938 L 604.5 267.460938 L 604.5 0.0390625 L 300.527344 0.0390625 L 300.527344 35.023438 C 300.527344 67.980469 300.453125 70.003906 299.179688 70.976562 C 298.28125 71.652344 297.605469 71.726562 297.082031 71.203125 C 296.558594 70.679688 296.332031 58.242188 296.484375 35.246094 L 296.558594 0.0390625 L 0 0.0390625 Z M 290.714844 13.523438 C 292.0625 14.273438 292.136719 15.398438 292.136719 42.0625 C 292.136719 71.726562 292.136719 71.726562 288.46875 69.703125 C 286.894531 68.878906 286.894531 68.507812 286.894531 40.867188 C 286.894531 10.527344 286.746094 11.425781 290.714844 13.523438 Z M 310.117188 41.164062 L 310.117188 69.554688 L 307.867188 69.855469 C 306.59375 70.078125 305.472656 70.003906 305.246094 69.855469 C 304.496094 69.03125 304.871094 15.695312 305.621094 14.199219 C 306.070312 13.375 307.195312 12.773438 308.242188 12.773438 L 310.117188 12.773438 Z M 326.296875 16.144531 C 327.34375 17.71875 327.417969 21.316406 327.195312 44.761719 L 326.96875 71.578125 L 354.835938 71.953125 C 379.328125 72.25 382.851562 72.476562 383.972656 73.523438 C 384.949219 74.5 385.023438 75.097656 384.347656 76.371094 C 383.449219 77.945312 383.226562 77.945312 355.957031 77.945312 L 328.394531 77.945312 L 325.246094 74.722656 L 322.101562 71.503906 L 322.101562 42.136719 C 322.101562 12.925781 322.101562 12.699219 323.597656 13.523438 C 324.421875 13.972656 325.621094 15.171875 326.296875 16.144531 Z M 274.234375 15.171875 C 274.910156 16.371094 274.984375 24.085938 274.757812 44.535156 C 274.386719 70.378906 274.234375 72.328125 272.960938 73.074219 C 272.210938 73.449219 270.714844 74.722656 269.664062 75.921875 L 267.71875 77.945312 L 241.277344 77.792969 C 217.082031 77.570312 214.683594 77.421875 213.933594 76.296875 C 213.335938 75.246094 213.410156 74.648438 214.460938 73.675781 C 215.65625 72.476562 218.054688 72.328125 241.800781 72.175781 C 256.109375 72.101562 268.019531 72.027344 268.390625 71.953125 C 268.691406 71.953125 268.917969 59.59375 268.917969 44.386719 C 268.917969 20.714844 269.066406 16.59375 270.117188 15.171875 C 271.539062 13.074219 273.113281 13.074219 274.234375 15.171875 Z M 282.699219 16.296875 C 282.925781 17.867188 283.148438 30.527344 283.148438 44.460938 L 283.148438 69.78125 L 281.125 69.554688 L 279.027344 69.328125 L 279.027344 42.738281 C 279.027344 28.132812 279.253906 15.546875 279.554688 14.796875 C 280.527344 12.550781 282.175781 13.375 282.699219 16.296875 Z M 317.230469 20.414062 C 317.90625 30.902344 317.382812 69.929688 316.484375 70.230469 C 316.109375 70.304688 315.210938 70.078125 314.609375 69.703125 C 313.636719 69.105469 313.488281 65.058594 313.261719 42.289062 C 313.113281 27.605469 313.1875 15.097656 313.410156 14.574219 C 313.636719 13.972656 314.460938 13.523438 315.285156 13.523438 C 316.558594 13.523438 316.78125 14.273438 317.230469 20.414062 Z M 358.957031 41.839844 C 364.871094 45.210938 364.574219 54.949219 358.503906 59.59375 C 350.042969 66.035156 338.804688 55.996094 343.523438 46.109375 C 346.144531 40.492188 353.261719 38.542969 358.957031 41.839844 Z M 291.3125 79.367188 C 296.257812 81.914062 296.332031 82.140625 293.859375 91.203125 L 291.761719 99.292969 L 288.765625 99.816406 C 283.972656 100.640625 272.0625 100.492188 271.539062 99.59375 C 271.238281 99.144531 270.863281 96.820312 270.640625 94.5 C 270.265625 90.828125 270.566406 89.40625 272.136719 85.882812 C 273.859375 82.140625 274.535156 81.464844 278.054688 79.816406 C 282.847656 77.570312 287.417969 77.421875 291.3125 79.367188 Z M 318.28125 79.441406 C 324.421875 82.511719 328.394531 90.605469 326.820312 96.671875 L 326.144531 99.292969 L 318.054688 99.515625 C 311.390625 99.667969 309.667969 99.515625 308.542969 98.46875 C 307.34375 97.34375 307.121094 97.421875 306.144531 99.441406 C 305.546875 100.566406 304.871094 102.8125 304.574219 104.3125 C 304.273438 105.882812 303.75 107.308594 303.449219 107.53125 C 302.773438 107.90625 302.550781 106.632812 301.050781 93.449219 C 299.929688 83.785156 300.378906 82.4375 305.546875 79.667969 C 309.667969 77.496094 314.386719 77.421875 318.28125 79.441406 Z M 262.398438 86.859375 L 261.203125 89.855469 L 236.929688 89.929688 C 221.425781 89.929688 212.136719 89.628906 211.238281 89.179688 C 210.265625 88.65625 209.738281 87.605469 209.738281 86.183594 L 209.738281 83.9375 L 263.523438 83.9375 Z M 387.121094 86.707031 L 386.894531 89.554688 L 361.425781 89.78125 L 335.957031 89.929688 L 333.410156 83.9375 L 387.34375 83.9375 Z M 261.574219 98.617188 L 261.875 101.316406 L 222.921875 101.015625 C 182.847656 100.714844 175.359375 100.117188 184.273438 98.246094 C 189.664062 97.046875 212.210938 96.148438 239.402344 96.070312 L 261.277344 95.921875 Z M 406.746094 97.644531 C 410.265625 98.167969 413.039062 98.84375 412.964844 99.292969 C 412.664062 100.714844 404.949219 101.015625 370.640625 101.089844 L 336.332031 101.164062 L 336.332031 95.699219 L 368.394531 96.222656 C 386.597656 96.519531 403.152344 97.121094 406.746094 97.644531 Z M 298.578125 106.109375 C 299.179688 110.15625 299.851562 114.574219 300.078125 115.921875 C 300.453125 118.320312 301.800781 119.367188 303.671875 118.695312 C 304.273438 118.46875 305.695312 115.25 306.820312 111.578125 L 308.84375 104.910156 L 315.507812 104.910156 C 319.105469 104.910156 322.101562 105.136719 322.101562 105.511719 C 322.101562 106.183594 305.398438 122.664062 301.578125 125.734375 L 298.65625 127.980469 L 291.089844 121.390625 C 286.96875 117.792969 281.5 112.703125 279.027344 110.15625 L 274.535156 105.511719 L 284.496094 105.808594 L 294.386719 106.183594 L 295.582031 102.140625 C 296.257812 99.890625 296.933594 98.167969 297.082031 98.394531 C 297.230469 98.542969 297.90625 102.0625 298.578125 106.109375 Z M 266.96875 108.957031 C 268.019531 110.378906 268.917969 111.652344 268.917969 111.800781 C 268.917969 111.953125 256.183594 111.953125 240.675781 111.800781 C 211.089844 111.652344 209.515625 111.429688 210.714844 108.355469 C 211.3125 106.933594 214.609375 106.785156 243.148438 106.558594 L 265.023438 106.410156 Z M 385.621094 106.859375 C 386.820312 107.234375 387.269531 107.90625 387.269531 109.40625 C 387.269531 110.527344 386.746094 111.652344 386.148438 111.878906 C 384.648438 112.476562 347.269531 112.550781 337.679688 111.953125 L 329.742188 111.429688 L 330.941406 108.957031 L 332.136719 106.410156 L 357.980469 106.410156 C 372.214844 106.410156 384.648438 106.632812 385.621094 106.859375 Z M 270.339844 118.394531 L 274.535156 118.394531 L 274.308594 145.136719 C 274.160156 159.894531 274.011719 172.253906 273.933594 172.628906 C 273.785156 173 273.1875 172.777344 272.511719 172.101562 C 271.914062 171.429688 271.164062 171.128906 270.863281 171.355469 C 270.640625 171.652344 270.339844 171.203125 270.339844 170.378906 C 270.265625 169.628906 269.964844 170.15625 269.664062 171.578125 C 269.367188 173 269.140625 162.8125 269.214844 148.882812 L 269.292969 123.636719 L 242.625 123.636719 C 217.753906 123.636719 215.808594 123.5625 214.160156 122.289062 C 213.109375 121.390625 212.660156 120.417969 212.960938 119.667969 C 213.335938 118.542969 215.65625 118.394531 231.988281 118.167969 C 242.175781 118.019531 254.085938 118.019531 258.355469 118.167969 C 262.625 118.246094 268.019531 118.394531 270.339844 118.394531 Z M 353.5625 118.394531 C 381.203125 118.394531 383.375 118.46875 383.898438 119.667969 C 384.199219 120.566406 383.824219 121.464844 382.777344 122.289062 C 381.277344 123.488281 378.730469 123.636719 353.863281 123.636719 L 326.519531 123.636719 L 326.59375 142.140625 C 326.671875 182.289062 326.671875 182.589844 325.398438 183.9375 C 322.550781 186.785156 322.402344 184.910156 322.175781 151.652344 C 322.101562 134.125 321.800781 119.21875 321.578125 118.542969 C 321.203125 117.644531 321.425781 117.496094 322.402344 117.871094 C 323.148438 118.167969 337.15625 118.394531 353.5625 118.394531 Z M 282.101562 123.710938 C 283.375 125.136719 283.449219 126.335938 283.222656 136.597656 C 283.074219 142.890625 282.847656 148.804688 282.773438 149.855469 C 282.699219 150.902344 282.550781 155.398438 282.476562 159.96875 C 282.398438 167.984375 282.324219 168.132812 281.203125 165.960938 C 280.226562 164.085938 280.078125 162.289062 280.453125 155.921875 C 280.753906 151.351562 280.675781 147.832031 280.226562 147.308594 C 278.953125 145.734375 278.730469 122.140625 280.003906 122.140625 C 280.378906 122.140625 281.277344 122.8125 282.101562 123.710938 Z M 317.308594 152.101562 C 317.15625 163.414062 316.933594 172.777344 316.933594 172.925781 C 316.855469 173.078125 316.484375 172.925781 316.035156 172.703125 C 315.582031 172.402344 315.433594 171.652344 315.660156 171.054688 C 315.882812 170.453125 315.734375 170.230469 315.359375 170.453125 C 314.910156 170.753906 314.609375 167.832031 314.535156 162.441406 C 314.460938 156.894531 314.234375 154.722656 313.859375 156.222656 C 313.5625 157.496094 313.261719 151.578125 313.1875 142.664062 C 313.113281 127.308594 313.1875 126.785156 314.761719 124.6875 L 316.484375 122.589844 L 317.082031 127.007812 C 317.382812 129.480469 317.53125 140.792969 317.308594 152.101562 Z M 291.390625 158.09375 C 291.390625 185.0625 291.3125 185.8125 288.242188 185.8125 C 287.195312 185.8125 286.894531 185.210938 286.894531 183.113281 C 286.894531 181.316406 287.195312 180.640625 287.71875 181.015625 C 288.316406 181.390625 288.46875 180.792969 288.019531 178.992188 C 287.71875 177.570312 287.34375 165.734375 287.121094 152.625 L 286.820312 128.730469 L 289.066406 130.453125 L 291.390625 132.175781 Z M 309.742188 157.347656 L 309.742188 185.136719 L 308.019531 185.585938 C 307.042969 185.8125 306.070312 185.734375 305.769531 185.511719 C 305.472656 185.210938 305.246094 173.300781 305.171875 158.992188 L 305.023438 133 L 307.042969 131.351562 C 308.09375 130.453125 309.140625 129.707031 309.367188 129.628906 C 309.589844 129.628906 309.742188 142.140625 309.742188 157.347656 Z M 300.378906 168.132812 C 300.378906 186.035156 300.152344 201.167969 299.929688 201.839844 C 299.328125 203.414062 297.679688 203.414062 297.082031 201.839844 C 296.855469 201.167969 296.632812 186.035156 296.632812 168.132812 L 296.632812 135.621094 L 300.378906 135.621094 Z M 354.609375 136.074219 C 355.285156 136.371094 356.183594 137.195312 356.632812 138.09375 C 357.382812 139.441406 357.308594 139.519531 355.507812 139.070312 C 350.640625 137.871094 345.546875 141.164062 344.273438 146.257812 C 344.046875 147.457031 343.449219 148.355469 343 148.355469 C 341.578125 148.355469 342.625 141.089844 344.273438 139.292969 C 346.820312 136.445312 351.613281 134.949219 354.609375 136.074219 Z M 279.929688 151.503906 C 279.703125 152.101562 279.480469 151.878906 279.480469 151.054688 C 279.402344 150.230469 279.628906 149.78125 279.851562 150.078125 C 280.078125 150.304688 280.152344 150.980469 279.929688 151.503906 Z M 273.933594 177.347656 C 273.710938 178.09375 273.5625 177.496094 273.5625 176.074219 C 273.5625 174.648438 273.710938 174.050781 273.933594 174.722656 C 274.085938 175.472656 274.085938 176.671875 273.933594 177.347656 Z M 273.410156 183.113281 C 273.410156 184.6875 271.390625 185.136719 270.265625 183.789062 C 269.441406 182.738281 269.515625 182.664062 271.015625 183.113281 C 271.988281 183.488281 272.664062 183.339844 272.664062 182.890625 C 272.664062 182.441406 272.8125 182.066406 273.035156 182.066406 C 273.261719 182.066406 273.410156 182.515625 273.410156 183.113281 Z M 476.183594 208.207031 C 476.410156 209.03125 477.160156 209.78125 477.90625 210.003906 C 478.65625 210.230469 479.40625 211.128906 479.628906 212.101562 C 479.929688 213.824219 479.929688 213.824219 480.082031 211.878906 C 480.082031 210.828125 479.78125 209.78125 479.257812 209.632812 C 478.730469 209.40625 478.582031 208.730469 478.882812 207.984375 C 479.78125 205.660156 480.902344 207.535156 480.902344 211.355469 C 480.902344 214.425781 480.679688 215.023438 479.480469 215.023438 C 478.730469 215.023438 477.832031 214.273438 477.535156 213.300781 L 476.933594 211.652344 L 476.632812 213.300781 C 476.035156 216.296875 474.988281 215.175781 474.761719 211.277344 C 474.460938 206.859375 472.8125 207.007812 472.515625 211.578125 C 472.289062 215.625 471.167969 215.773438 471.167969 211.652344 C 471.167969 209.554688 470.867188 208.359375 470.417969 208.65625 C 470.042969 208.882812 469.667969 208.808594 469.667969 208.359375 C 469.667969 207.609375 471.316406 207.007812 474.011719 206.859375 C 475.210938 206.785156 475.960938 207.308594 476.183594 208.207031 Z M 252.4375 231.054688 C 252.4375 241.917969 252.660156 251.355469 252.886719 252.027344 C 253.113281 252.703125 254.535156 253.902344 255.957031 254.800781 C 258.128906 256.148438 258.503906 256.746094 258.28125 258.769531 C 258.054688 260.792969 257.753906 261.09375 255.65625 261.316406 C 252.4375 261.617188 249.816406 259.742188 248.09375 256 C 246.746094 253.226562 246.519531 250.53125 246.21875 232.550781 C 245.996094 221.316406 245.996094 211.953125 246.21875 211.726562 C 246.519531 211.503906 248.019531 211.277344 249.589844 211.277344 L 252.4375 211.277344 Z M 291.390625 220.34375 L 291.390625 228.433594 L 295.359375 226.636719 C 303.300781 222.890625 311.914062 224.988281 315.210938 231.503906 C 316.707031 234.574219 316.855469 235.847656 316.855469 248.132812 L 316.855469 261.46875 L 310.117188 261.46875 L 310.117188 248.132812 C 310.117188 235.625 310.039062 234.648438 308.542969 233.078125 C 304.347656 228.582031 296.933594 229.105469 292.960938 234.199219 C 291.539062 236.074219 291.390625 237.121094 291.390625 248.808594 L 291.390625 261.46875 L 285.394531 261.46875 L 285.320312 257.121094 C 285.320312 254.800781 285.171875 243.789062 285.023438 232.628906 C 284.871094 221.542969 284.871094 212.253906 285.023438 212.027344 C 285.171875 211.804688 286.667969 211.726562 288.316406 211.878906 L 291.390625 212.179688 Z M 131.835938 223.265625 L 131.835938 233.75 L 143.445312 233.75 C 149.8125 233.75 155.28125 233.675781 155.65625 233.527344 C 155.957031 233.453125 156.03125 229.480469 155.882812 224.6875 C 155.582031 213.375 155.730469 212.777344 160 212.777344 L 163.371094 212.777344 L 163.222656 217.046875 C 163.222656 219.445312 162.996094 230.378906 162.773438 241.390625 L 162.398438 261.316406 L 156.554688 261.917969 L 156.40625 258.097656 C 156.257812 254.425781 156.105469 250.378906 155.882812 243.488281 L 155.808594 240.117188 L 143.671875 240.191406 L 131.460938 240.191406 L 131.238281 250.753906 L 131.011719 261.316406 L 128.089844 261.617188 L 125.09375 261.917969 L 125.09375 212.777344 L 131.835938 212.777344 Z M 333.5625 218.996094 C 335.507812 222.367188 339.328125 228.65625 341.953125 232.925781 L 346.746094 240.71875 L 347.945312 238.546875 C 348.617188 237.347656 350.566406 233.902344 352.289062 230.828125 C 354.011719 227.832031 356.183594 223.9375 357.082031 222.214844 C 357.980469 220.566406 360.003906 217.722656 361.578125 216.074219 C 364.125 213.226562 364.722656 213 367.269531 213.300781 L 370.042969 213.675781 L 370.042969 261.46875 L 363.300781 261.46875 L 363.226562 243.640625 C 363.148438 233.902344 362.925781 226.558594 362.699219 227.460938 C 362.101562 229.257812 348.542969 249.257812 347.417969 249.929688 C 346.445312 250.605469 344.273438 247.984375 337.007812 237.121094 C 333.636719 232.179688 330.789062 227.984375 330.566406 227.757812 C 330.414062 227.609375 330.492188 235.097656 330.789062 244.464844 L 331.3125 261.46875 L 324.347656 261.46875 L 324.347656 212.777344 L 327.195312 212.777344 C 329.890625 212.777344 330.039062 213 333.5625 218.996094 Z M 268.992188 218.769531 C 269.140625 225.210938 268.46875 224.539062 274.910156 224.6875 C 278.65625 224.761719 278.65625 224.761719 278.65625 227.308594 C 278.65625 230.304688 277.832031 230.753906 272.210938 230.753906 L 268.167969 230.753906 L 268.167969 240.417969 C 268.167969 249.554688 268.242188 250.304688 269.964844 252.179688 C 271.238281 253.75 272.585938 254.351562 275.359375 254.648438 L 279.027344 255.101562 L 279.253906 258.320312 L 279.480469 261.46875 L 275.660156 261.46875 C 270.640625 261.46875 267.792969 259.894531 265.097656 255.625 C 262.925781 252.253906 262.925781 252.027344 262.925781 241.464844 L 262.925781 230.753906 L 260.976562 230.753906 C 259.253906 230.753906 259.105469 230.53125 259.328125 227.910156 C 259.476562 225.660156 259.851562 225.0625 261.277344 224.914062 C 262.773438 224.6875 262.925781 224.238281 262.925781 219.820312 L 262.925781 215.023438 L 268.917969 215.023438 Z M 424.722656 219.894531 L 424.722656 224.761719 L 433.789062 224.761719 L 433.488281 227.460938 L 433.1875 230.230469 L 428.769531 230.304688 L 424.347656 230.378906 L 424.125 240.117188 C 423.976562 246.035156 424.273438 250.605469 424.796875 251.804688 C 425.699219 254.050781 429.144531 255.847656 431.390625 255.25 C 432.886719 254.875 433.710938 256.375 433.710938 259.742188 C 433.710938 261.316406 433.414062 261.46875 429.292969 261.46875 C 423.976562 261.46875 421.128906 259.519531 419.105469 254.574219 C 418.058594 251.804688 417.90625 249.855469 418.355469 240.644531 L 418.882812 230.007812 L 416.410156 230.15625 C 413.9375 230.378906 413.863281 230.230469 413.636719 227.535156 C 413.414062 224.835938 413.414062 224.761719 416.035156 224.761719 L 418.730469 224.761719 L 418.730469 220.34375 C 418.730469 215.546875 418.507812 215.773438 423.824219 215.097656 C 424.425781 215.023438 424.722656 216.449219 424.722656 219.894531 Z M 228.691406 225.136719 C 231.761719 225.660156 236.183594 229.03125 237.753906 232.179688 C 238.429688 233.453125 238.953125 238.917969 239.253906 247.757812 L 239.777344 261.46875 L 233.710938 261.46875 L 233.710938 258.46875 C 233.710938 256.824219 233.484375 255.472656 233.261719 255.472656 C 233.035156 255.472656 232.0625 256.449219 231.015625 257.648438 C 225.394531 264.386719 212.886719 263.113281 208.992188 255.398438 C 206.144531 249.929688 207.867188 244.835938 213.636719 241.917969 C 216.257812 240.566406 218.28125 240.191406 224.722656 240.042969 C 231.914062 239.894531 232.585938 239.742188 232.8125 238.320312 C 233.1875 235.921875 230.9375 232.550781 228.015625 231.128906 C 224.722656 229.554688 217.457031 229.929688 214.609375 231.804688 C 212.960938 232.925781 212.8125 232.851562 211.3125 230.53125 L 209.816406 228.132812 L 212.960938 226.785156 C 216.40625 225.210938 222.023438 224.089844 224.347656 224.460938 C 225.171875 224.539062 227.117188 224.914062 228.691406 225.136719 Z M 400.003906 225.660156 C 402.925781 226.785156 406.746094 230.828125 407.421875 233.75 C 407.792969 235.175781 408.320312 241.992188 408.617188 248.882812 L 409.144531 261.46875 L 406.070312 261.46875 C 403.375 261.46875 403 261.242188 403 259.742188 C 403 256.597656 401.953125 256.074219 400.003906 258.097656 C 397.382812 260.941406 392.4375 262.515625 387.945312 261.992188 C 378.054688 260.792969 373.039062 251.730469 378.65625 245.0625 C 381.351562 241.917969 385.546875 240.566406 394.460938 239.96875 L 402.25 239.519531 L 402.25 237.570312 C 402.25 233.453125 397.90625 230.007812 392.738281 230.007812 C 388.992188 230.007812 384.648438 231.277344 383.148438 232.777344 C 382.476562 233.375 381.875 233.824219 381.726562 233.675781 C 381.277344 233.226562 379.03125 228.582031 379.03125 228.28125 C 379.03125 227.683594 385.171875 225.4375 388.394531 224.761719 C 391.613281 224.089844 396.933594 224.539062 400.003906 225.660156 Z M 461.429688 226.035156 C 467.046875 228.28125 470.941406 234.050781 471.617188 241.09375 L 472.140625 245.738281 L 457.382812 245.738281 C 449.292969 245.738281 442.703125 246.035156 442.703125 246.410156 C 442.703125 247.757812 446.222656 252.179688 448.617188 253.75 C 452.8125 256.597656 461.503906 255.550781 463.527344 252.027344 C 464.199219 250.828125 464.425781 250.828125 466.597656 252.402344 C 467.871094 253.300781 468.917969 254.351562 468.917969 254.726562 C 468.917969 255.921875 461.726562 260.566406 458.507812 261.46875 C 447.269531 264.464844 434.761719 253.078125 436.183594 241.09375 C 436.859375 235.550781 439.332031 231.054688 443.375 228.058594 C 448.917969 224.011719 454.910156 223.339844 461.429688 226.035156 Z M 193.710938 226.1875 C 199.628906 228.882812 203.746094 235.773438 203.746094 243.039062 L 203.746094 245.738281 L 189.515625 245.738281 C 180.078125 245.738281 175.28125 246.035156 175.28125 246.484375 C 175.28125 248.058594 177.53125 251.652344 179.476562 253.152344 C 183.898438 256.597656 191.386719 256.671875 194.984375 253.375 L 196.632812 251.878906 L 198.804688 253.601562 L 201.050781 255.398438 L 199.179688 256.898438 C 198.203125 257.796875 195.582031 259.371094 193.410156 260.417969 C 190.113281 262.066406 188.839844 262.367188 185.695312 261.992188 C 180.300781 261.316406 174.757812 258.019531 171.835938 253.828125 C 168.992188 249.632812 168.242188 245.8125 168.914062 239.667969 C 169.890625 231.054688 177.230469 224.761719 186.144531 224.761719 C 188.914062 224.761719 191.835938 225.363281 193.710938 226.1875 Z M 193.710938 226.1875 " fill-opacity="1" fill-rule="nonzero"/></g><path fill="#5271ff" d="M 347.644531 45.433594 C 342.324219 49.929688 346.222656 58.46875 353.636719 58.46875 C 357.230469 58.46875 360.304688 54.949219 360.304688 50.753906 C 360.304688 47.90625 359.929688 47.082031 357.980469 45.433594 C 356.410156 44.085938 354.835938 43.488281 352.8125 43.488281 C 350.789062 43.488281 349.21875 44.085938 347.644531 45.433594 Z M 354.984375 47.90625 C 356.257812 48.730469 356.332031 52.101562 355.058594 53.597656 C 353.863281 55.097656 350.863281 55.023438 350.265625 53.523438 C 348.617188 49.179688 351.539062 45.734375 354.984375 47.90625 Z M 354.984375 47.90625 " fill-opacity="1" fill-rule="nonzero"/><path fill="#5271ff" d="M 352.0625 50.601562 C 352.0625 51.652344 352.4375 52.476562 352.8125 52.476562 C 353.261719 52.476562 353.5625 51.652344 353.5625 50.601562 C 353.5625 49.554688 353.261719 48.730469 352.8125 48.730469 C 352.4375 48.730469 352.0625 49.554688 352.0625 50.601562 Z M 352.0625 50.601562 " fill-opacity="1" fill-rule="nonzero"/><path fill="#5271ff" d="M 218.953125 245.738281 C 215.433594 246.558594 214.234375 247.832031 214.234375 250.605469 C 214.234375 257.421875 226.445312 258.320312 231.464844 251.878906 C 233.5625 249.257812 233.410156 246.035156 231.3125 245.4375 C 228.992188 244.835938 221.949219 244.988281 218.953125 245.738281 Z M 218.953125 245.738281 " fill-opacity="1" fill-rule="nonzero"/><path fill="#5271ff" d="M 388.917969 245.8125 C 384.949219 246.558594 384.347656 246.933594 383.523438 249.183594 C 382.625 251.503906 383.675781 254.351562 385.847656 255.550781 C 388.242188 256.824219 394.085938 256.597656 396.933594 255.175781 C 399.78125 253.675781 402.25 249.929688 402.25 247.011719 C 402.25 244.988281 402.25 244.988281 397.234375 245.0625 C 394.386719 245.136719 390.714844 245.4375 388.917969 245.8125 Z M 388.917969 245.8125 " fill-opacity="1" fill-rule="nonzero"/><path fill="#5271ff" d="M 449.070312 231.128906 C 446.597656 232.476562 443.898438 235.550781 443.152344 237.945312 C 442.703125 239.445312 442.925781 239.519531 453.636719 240.042969 C 459.707031 240.34375 464.800781 240.417969 464.949219 240.191406 C 465.773438 239.445312 463.527344 234.648438 461.429688 232.628906 C 458.65625 230.007812 452.589844 229.257812 449.070312 231.128906 Z M 449.070312 231.128906 " fill-opacity="1" fill-rule="nonzero"/><path fill="#5271ff" d="M 183.148438 230.53125 C 179.628906 231.429688 175.28125 236.449219 175.28125 239.667969 C 175.28125 240.191406 178.730469 240.492188 186.144531 240.492188 L 197.007812 240.492188 L 197.007812 238.695312 C 197.007812 236.523438 193.933594 232.628906 190.9375 231.128906 C 188.839844 230.007812 186.070312 229.855469 183.148438 230.53125 Z M 183.148438 230.53125 " fill-opacity="1" fill-rule="nonzero"/></svg>